<svg version="1.0" xmlns="http://www.w3.org/2000/svg" viewBox="0 0 512 512"><g transform="translate(0,512) scale(0.1,-0.1)" fill="#ffdf00" stroke="none"><path d="M0 2560 l0 -2560 2560 0 2560 0 0 2560 0 2560 -2560 0 -2560 0 0 -2560z"/></g><g transform="translate(0,512) scale(0.1,-0.1)" fill="#000" stroke="none"><path d="M1280 2560 l0 -640 -160 0 -160 0 0 160 0 160 -160 0 -160 0 0 -320 0 -320 480 0 480 0 0 800 0 800 -160 0 -160 0 0 -640z"/> <path d="M1920 2720 l0 -480 320 0 320 0 0 -160 0 -160 -320 0 -320 0 0 -160 0 -160 480 0 480 0 0 480 0 480 -320 0 -320 0 0 160 0 160 320 0 320 0 0 160 0 160 -480 0 -480 0 0 -480z"/><path d="M3840 2880 l0 -320 -320 0 -320 0 0 -160 0 -160 320 0 320 0 0 -320 0 -320 160 0 160 0 0 320 0 320 320 0 320 0 0 160 0 160 -320 0 -320 0 0 320 0 320 -160 0 -160 0 0 -320z"/></g></svg>